<svg width="223" height="146" viewBox="0 0 223 146" fill="none" xmlns="http://www.w3.org/2000/svg">
<path d="M16.3247 120.36C13.8966 120.36 11.6853 119.818 9.69078 118.734C7.73962 117.607 6.17869 116.046 5.00799 114.051C3.88065 112.057 3.31698 109.737 3.31698 107.092C3.31698 104.274 3.92401 101.867 5.13807 99.8729C6.35212 97.8351 7.99977 96.2958 10.081 95.2552C12.1623 94.1712 14.5253 93.6292 17.1702 93.6292C19.4249 93.6292 21.5495 94.3013 23.544 95.6454C25.5819 96.9895 27.0345 98.6806 27.9016 100.718L27.4464 101.629L27.8366 94.4097H30.5682V119.84H27.5114V111.97L28.1618 113.141C27.8583 114.008 27.338 114.875 26.6009 115.742C25.8638 116.566 24.9532 117.347 23.8692 118.084C22.8286 118.778 21.6579 119.341 20.3571 119.775C19.0997 120.165 17.7556 120.36 16.3247 120.36ZM16.9751 117.759C18.8829 117.759 20.5956 117.368 22.1132 116.588C23.6741 115.764 24.9315 114.637 25.8854 113.206C26.8393 111.775 27.3813 110.127 27.5114 108.263V104.621C27.1645 103.016 26.4708 101.586 25.4302 100.328C24.4329 99.0708 23.1972 98.0735 21.723 97.3364C20.2487 96.5993 18.6445 96.2308 16.9101 96.2308C15.0023 96.2308 13.2462 96.686 11.6419 97.5966C10.0377 98.4638 8.75856 99.6995 7.80466 101.304C6.85075 102.908 6.3738 104.794 6.3738 106.962C6.3738 108.957 6.85075 110.778 7.80466 112.425C8.75856 114.03 10.0377 115.33 11.6419 116.328C13.2896 117.282 15.0673 117.759 16.9751 117.759ZM44.7853 94.4097L45.1105 102.214L44.7203 101.239C45.2839 99.6778 46.1728 98.3337 47.3869 97.2063C48.6009 96.079 49.9451 95.2118 51.4193 94.6048C52.9368 93.9978 54.3894 93.6942 55.7769 93.6942L55.6468 96.686C53.6956 96.686 51.9179 97.1196 50.3136 97.9868C48.7527 98.854 47.4953 100.025 46.5414 101.499C45.6308 102.93 45.1755 104.556 45.1755 106.377V119.84H42.1187V94.4097H44.7853ZM66.8853 83.223H70.0072V94.7349H77.8768V97.2063H70.0072V119.84H66.8853V97.2063H61.4871V94.7349H66.8853V83.223ZM92.9785 120.425C90.8973 120.425 88.9028 120.057 86.995 119.32C85.1305 118.582 83.5479 117.498 82.2471 116.068L85.369 111.97C86.5831 113.141 87.7754 114.008 88.9461 114.572C90.1602 115.092 91.3092 115.352 92.3932 115.352C93.217 115.352 93.9541 115.265 94.6045 115.092C95.2983 114.875 95.8403 114.55 96.2305 114.116C96.6641 113.683 96.8809 113.097 96.8809 112.36C96.8809 111.493 96.5774 110.821 95.9703 110.344C95.3633 109.824 94.5828 109.412 93.6289 109.108C92.675 108.762 91.6778 108.436 90.6372 108.133C88.2524 107.396 86.4747 106.312 85.304 104.881C84.1333 103.45 83.5479 101.802 83.5479 99.938C83.5479 98.5071 83.9165 97.1413 84.6536 95.8405C85.3907 94.4964 86.518 93.3907 88.0356 92.5235C89.5532 91.6564 91.461 91.2228 93.759 91.2228C95.8403 91.2228 97.6397 91.4612 99.1572 91.9382C100.718 92.3718 102.171 93.1306 103.515 94.2146L100.718 98.5722C99.9377 97.8351 99.0055 97.2714 97.9215 96.8811C96.8809 96.4476 95.927 96.2091 95.0598 96.1657C94.2793 96.1224 93.5856 96.2308 92.9785 96.4909C92.3715 96.7077 91.8729 97.0329 91.4827 97.4665C91.1358 97.9001 90.9623 98.3987 90.9623 98.9624C90.919 99.8296 91.2008 100.523 91.8078 101.044C92.4582 101.564 93.2821 101.976 94.2793 102.279C95.2766 102.583 96.2738 102.908 97.2711 103.255C98.6152 103.645 99.8076 104.187 100.848 104.881C101.889 105.575 102.691 106.42 103.255 107.417C103.862 108.371 104.165 109.564 104.165 110.995C104.165 112.642 103.753 114.203 102.929 115.677C102.106 117.108 100.87 118.257 99.2223 119.124C97.5746 119.992 95.4934 120.425 92.9785 120.425ZM114.822 80.2312H122.171V92.3284H129.326V98.0518H122.171V119.84H114.822V98.0518H110.139V92.3284H114.822V80.2312ZM134.207 105.791C134.207 103.016 134.857 100.523 136.158 98.312C137.458 96.0573 139.28 94.3013 141.621 93.0439C144.006 91.7431 146.694 91.0927 149.686 91.0927C152.764 91.0927 155.431 91.7431 157.686 93.0439C159.984 94.3013 161.761 96.0573 163.019 98.312C164.276 100.523 164.905 103.016 164.905 105.791C164.905 108.566 164.276 111.081 163.019 113.336C161.761 115.547 159.984 117.303 157.686 118.604C155.431 119.905 152.743 120.555 149.621 120.555C146.672 120.555 144.027 119.97 141.686 118.799C139.345 117.585 137.502 115.872 136.158 113.661C134.857 111.45 134.207 108.827 134.207 105.791ZM141.556 105.857C141.556 107.461 141.903 108.935 142.597 110.279C143.29 111.58 144.244 112.621 145.458 113.401C146.672 114.181 148.016 114.572 149.491 114.572C151.095 114.572 152.482 114.181 153.653 113.401C154.867 112.621 155.799 111.58 156.45 110.279C157.144 108.935 157.49 107.461 157.49 105.857C157.49 104.209 157.144 102.735 156.45 101.434C155.799 100.09 154.867 99.0274 153.653 98.247C152.482 97.4665 151.095 97.0763 149.491 97.0763C147.973 97.0763 146.607 97.4882 145.393 98.312C144.223 99.0925 143.29 100.133 142.597 101.434C141.903 102.735 141.556 104.209 141.556 105.857ZM179.128 92.3284L179.778 97.9218L179.518 97.4665C180.559 95.472 181.968 93.911 183.746 92.7837C185.567 91.6564 187.67 91.0927 190.055 91.0927C191.572 91.0927 192.916 91.3312 194.087 91.8081C195.258 92.2851 196.233 92.9571 197.014 93.8243C197.838 94.6915 198.38 95.7755 198.64 97.0763L198.249 97.2063C199.377 95.3419 200.829 93.8677 202.607 92.7837C204.385 91.6564 206.271 91.0927 208.265 91.0927C210.954 91.0927 213.1 91.8732 214.704 93.4341C216.309 94.9517 217.132 96.9245 217.176 99.3526V119.84H209.956V102.214C209.913 100.87 209.631 99.7645 209.111 98.8973C208.591 97.9868 207.615 97.4882 206.184 97.4015C204.623 97.4015 203.279 97.9001 202.152 98.8973C201.024 99.8513 200.136 101.109 199.485 102.67C198.878 104.187 198.575 105.813 198.575 107.548V119.84H191.225V102.214C191.182 100.87 190.878 99.7645 190.315 98.8973C189.751 97.9868 188.754 97.4882 187.323 97.4015C185.805 97.4015 184.483 97.9001 183.356 98.8973C182.228 99.8513 181.361 101.109 180.754 102.67C180.147 104.187 179.843 105.791 179.843 107.482V119.84H172.559V92.3284H179.128Z" fill="white"/>
<path d="M9.01437 129.84H9.96653V133.351H12.3668V134.105H9.96653V141.008H9.01437V134.105H7.36793V133.351H9.01437V129.84ZM14.6915 141.008V125.932H15.604V135.315L15.5445 134.977C15.809 134.435 16.2322 133.979 16.814 133.609C17.4091 133.225 18.0902 133.033 18.8572 133.033C19.5845 133.033 20.173 133.252 20.6227 133.688C21.0723 134.111 21.3037 134.667 21.3169 135.354V141.008H20.3648V135.612C20.3516 135.11 20.1929 134.693 19.8887 134.363C19.5845 134.032 19.1415 133.86 18.5597 133.847C18.0439 133.847 17.5612 133.979 17.1116 134.244C16.662 134.508 16.2983 134.865 16.0206 135.315C15.7561 135.764 15.6238 136.273 15.6238 136.842V141.008H14.6915ZM28.2145 141.167C27.4078 141.167 26.6937 140.988 26.0721 140.631C25.4506 140.274 24.9613 139.791 24.6042 139.183C24.2604 138.561 24.0885 137.867 24.0885 137.1C24.0885 136.346 24.2736 135.659 24.6439 135.037C25.0142 134.415 25.5101 133.92 26.1317 133.549C26.7664 133.179 27.4673 132.994 28.2343 132.994C29.16 132.994 29.9337 133.265 30.5552 133.807C31.19 134.349 31.6462 135.057 31.9239 135.93L25.1398 138.548L24.8621 137.874L31.071 135.454L30.8726 135.731C30.6478 135.202 30.304 134.746 29.8411 134.363C29.3915 133.979 28.836 133.787 28.1748 133.787C27.5797 133.787 27.0441 133.933 26.5681 134.224C26.092 134.515 25.7085 134.905 25.4175 135.394C25.1398 135.883 25.001 136.439 25.001 137.06C25.001 137.642 25.1332 138.184 25.3977 138.687C25.6754 139.189 26.0589 139.593 26.5482 139.897C27.0375 140.201 27.5996 140.353 28.2343 140.353C28.6575 140.353 29.0609 140.274 29.4444 140.115C29.8411 139.956 30.1915 139.751 30.4957 139.5L30.9718 140.175C30.6015 140.466 30.1717 140.704 29.6824 140.889C29.2063 141.074 28.717 141.167 28.2145 141.167ZM43.805 141.167C43.0644 141.167 42.39 141.001 41.7817 140.671C41.1866 140.327 40.7105 139.851 40.3534 139.242C40.0096 138.634 39.8377 137.927 39.8377 137.12C39.8377 136.26 40.0228 135.526 40.3931 134.918C40.7634 134.296 41.2659 133.827 41.9007 133.51C42.5354 133.179 43.2562 133.014 44.0629 133.014C44.7505 133.014 45.3985 133.219 46.0068 133.629C46.6284 134.039 47.0714 134.554 47.3359 135.176L47.197 135.454L47.3161 133.252H48.1492V141.008H47.2169V138.608L47.4152 138.965C47.3227 139.229 47.164 139.494 46.9392 139.758C46.7144 140.009 46.4366 140.247 46.106 140.472C45.7886 140.684 45.4316 140.856 45.0349 140.988C44.6513 141.107 44.2414 141.167 43.805 141.167ZM44.0033 140.373C44.5852 140.373 45.1076 140.254 45.5704 140.016C46.0465 139.765 46.43 139.421 46.721 138.984C47.0119 138.548 47.1772 138.046 47.2169 137.477V136.366C47.1111 135.877 46.8995 135.44 46.5821 135.057C46.2779 134.673 45.9011 134.369 45.4514 134.144C45.0018 133.92 44.5125 133.807 43.9835 133.807C43.4016 133.807 42.8661 133.946 42.3767 134.224C41.8874 134.488 41.4973 134.865 41.2064 135.354C40.9155 135.844 40.77 136.419 40.77 137.08C40.77 137.688 40.9155 138.244 41.2064 138.746C41.4973 139.236 41.8874 139.632 42.3767 139.937C42.8793 140.228 43.4215 140.373 44.0033 140.373ZM52.4854 133.252L52.5845 135.632L52.4655 135.335C52.6374 134.858 52.9085 134.449 53.2788 134.105C53.6491 133.761 54.0591 133.496 54.5087 133.311C54.9715 133.126 55.4146 133.033 55.8377 133.033L55.7981 133.946C55.203 133.946 54.6608 134.078 54.1715 134.343C53.6954 134.607 53.3119 134.964 53.0209 135.414C52.7432 135.85 52.6044 136.346 52.6044 136.902V141.008H51.6721V133.252H52.4854ZM59.2258 129.84H60.1779V133.351H62.5782V134.105H60.1779V141.008H59.2258V134.105H57.5793V133.351H59.2258V129.84ZM70.2318 137.08C70.2318 136.326 70.4104 135.639 70.7674 135.017C71.1377 134.396 71.6336 133.906 72.2552 133.549C72.8899 133.179 73.5974 132.994 74.3777 132.994C75.1712 132.994 75.8787 133.179 76.5002 133.549C77.1217 133.906 77.6111 134.396 77.9681 135.017C78.3252 135.639 78.5037 136.326 78.5037 137.08C78.5037 137.834 78.3252 138.522 77.9681 139.143C77.6111 139.765 77.1151 140.261 76.4804 140.631C75.8588 140.988 75.1579 141.167 74.3777 141.167C73.5842 141.167 72.8767 140.995 72.2552 140.651C71.6336 140.294 71.1377 139.811 70.7674 139.203C70.4104 138.581 70.2318 137.874 70.2318 137.08ZM71.1642 137.1C71.1642 137.708 71.303 138.264 71.5807 138.766C71.8717 139.256 72.2552 139.646 72.7312 139.937C73.2206 140.228 73.7628 140.373 74.3578 140.373C74.9529 140.373 75.4885 140.228 75.9646 139.937C76.4539 139.646 76.8374 139.256 77.1151 138.766C77.4061 138.264 77.5515 137.708 77.5515 137.1C77.5515 136.492 77.4061 135.943 77.1151 135.454C76.8374 134.951 76.4539 134.554 75.9646 134.263C75.4885 133.959 74.9529 133.807 74.3578 133.807C73.7495 133.807 73.2007 133.966 72.7114 134.283C72.2353 134.587 71.8584 134.991 71.5807 135.493C71.303 135.996 71.1642 136.531 71.1642 137.1ZM81.7877 141.008V134.125H80.4389V133.272H81.7877V129.364C81.7877 128.121 81.9993 127.228 82.4225 126.686C82.8589 126.13 83.5003 125.853 84.3467 125.853C84.5318 125.853 84.7302 125.879 84.9418 125.932C85.1534 125.972 85.3451 126.044 85.517 126.15L85.1203 126.825C85.0277 126.759 84.9219 126.712 84.8029 126.686C84.6971 126.646 84.5715 126.626 84.426 126.626C83.8574 126.626 83.4276 126.825 83.1366 127.221C82.8589 127.618 82.7201 128.326 82.7201 129.344V133.272H85.3187V134.125H82.7201V141.008H81.7877ZM96.9996 141.167C96.2591 141.167 95.5846 141.001 94.9763 140.671C94.3812 140.327 93.9051 139.851 93.5481 139.242C93.2042 138.634 93.0323 137.927 93.0323 137.12C93.0323 136.26 93.2174 135.526 93.5877 134.918C93.958 134.296 94.4605 133.827 95.0953 133.51C95.7301 133.179 96.4508 133.014 97.2575 133.014C97.9452 133.014 98.5932 133.219 99.2015 133.629C99.823 134.039 100.266 134.554 100.531 135.176L100.392 135.454L100.511 133.252H101.344V141.008H100.412V138.608L100.61 138.965C100.517 139.229 100.359 139.494 100.134 139.758C99.909 140.009 99.6313 140.247 99.3007 140.472C98.9833 140.684 98.6262 140.856 98.2295 140.988C97.846 141.107 97.436 141.167 96.9996 141.167ZM97.198 140.373C97.7799 140.373 98.3022 140.254 98.7651 140.016C99.2412 139.765 99.6247 139.421 99.9156 138.984C100.207 138.548 100.372 138.046 100.412 137.477V136.366C100.306 135.877 100.094 135.44 99.7767 135.057C99.4726 134.673 99.0957 134.369 98.6461 134.144C98.1964 133.92 97.7071 133.807 97.1782 133.807C96.5963 133.807 96.0607 133.946 95.5714 134.224C95.0821 134.488 94.692 134.865 94.401 135.354C94.1101 135.844 93.9646 136.419 93.9646 137.08C93.9646 137.688 94.1101 138.244 94.401 138.746C94.692 139.236 95.0821 139.632 95.5714 139.937C96.0739 140.228 96.6161 140.373 97.198 140.373ZM110.949 141.008V125.932H111.862V135.315L111.802 134.977C112.067 134.435 112.49 133.979 113.072 133.609C113.667 133.225 114.348 133.033 115.115 133.033C115.842 133.033 116.431 133.252 116.881 133.688C117.33 134.111 117.562 134.667 117.575 135.354V141.008H116.623V135.612C116.609 135.11 116.451 134.693 116.147 134.363C115.842 134.032 115.399 133.86 114.818 133.847C114.302 133.847 113.819 133.979 113.369 134.244C112.92 134.508 112.556 134.865 112.278 135.315C112.014 135.764 111.882 136.273 111.882 136.842V141.008H110.949ZM124.472 141.167C123.666 141.167 122.952 140.988 122.33 140.631C121.708 140.274 121.219 139.791 120.862 139.183C120.518 138.561 120.346 137.867 120.346 137.1C120.346 136.346 120.532 135.659 120.902 135.037C121.272 134.415 121.768 133.92 122.39 133.549C123.024 133.179 123.725 132.994 124.492 132.994C125.418 132.994 126.192 133.265 126.813 133.807C127.448 134.349 127.904 135.057 128.182 135.93L121.398 138.548L121.12 137.874L127.329 135.454L127.13 135.731C126.906 135.202 126.562 134.746 126.099 134.363C125.649 133.979 125.094 133.787 124.433 133.787C123.838 133.787 123.302 133.933 122.826 134.224C122.35 134.515 121.966 134.905 121.675 135.394C121.398 135.883 121.259 136.439 121.259 137.06C121.259 137.642 121.391 138.184 121.656 138.687C121.933 139.189 122.317 139.593 122.806 139.897C123.295 140.201 123.857 140.353 124.492 140.353C124.915 140.353 125.319 140.274 125.702 140.115C126.099 139.956 126.449 139.751 126.754 139.5L127.23 140.175C126.859 140.466 126.43 140.704 125.94 140.889C125.464 141.074 124.975 141.167 124.472 141.167ZM133.98 141.167C133.24 141.167 132.565 141.001 131.957 140.671C131.362 140.327 130.886 139.851 130.529 139.242C130.185 138.634 130.013 137.927 130.013 137.12C130.013 136.26 130.198 135.526 130.568 134.918C130.939 134.296 131.441 133.827 132.076 133.51C132.711 133.179 133.431 133.014 134.238 133.014C134.926 133.014 135.574 133.219 136.182 133.629C136.804 134.039 137.247 134.554 137.511 135.176L137.372 135.454L137.491 133.252H138.324V141.008H137.392V138.608L137.59 138.965C137.498 139.229 137.339 139.494 137.114 139.758C136.89 140.009 136.612 140.247 136.281 140.472C135.964 140.684 135.607 140.856 135.21 140.988C134.827 141.107 134.417 141.167 133.98 141.167ZM134.179 140.373C134.76 140.373 135.283 140.254 135.746 140.016C136.222 139.765 136.605 139.421 136.896 138.984C137.187 138.548 137.352 138.046 137.392 137.477V136.366C137.286 135.877 137.075 135.44 136.757 135.057C136.453 134.673 136.076 134.369 135.627 134.144C135.177 133.92 134.688 133.807 134.159 133.807C133.577 133.807 133.041 133.946 132.552 134.224C132.063 134.488 131.673 134.865 131.382 135.354C131.091 135.844 130.945 136.419 130.945 137.08C130.945 137.688 131.091 138.244 131.382 138.746C131.673 139.236 132.063 139.632 132.552 139.937C133.054 140.228 133.597 140.373 134.179 140.373ZM141.847 125.932H142.78V141.008H141.847V125.932ZM147.076 129.84H148.029V133.351H150.429V134.105H148.029V141.008H147.076V134.105H145.43V133.351H147.076V129.84ZM152.753 141.008V125.932H153.666V135.315L153.606 134.977C153.871 134.435 154.294 133.979 154.876 133.609C155.471 133.225 156.152 133.033 156.919 133.033C157.647 133.033 158.235 133.252 158.685 133.688C159.134 134.111 159.366 134.667 159.379 135.354V141.008H158.427V135.612C158.414 135.11 158.255 134.693 157.951 134.363C157.647 134.032 157.204 133.86 156.622 133.847C156.106 133.847 155.623 133.979 155.174 134.244C154.724 134.508 154.36 134.865 154.083 135.315C153.818 135.764 153.686 136.273 153.686 136.842V141.008H152.753ZM163.618 144.737L168.677 133.252H169.589L164.59 144.737H163.618ZM165.364 141.087L161.694 133.252H162.746L166.098 140.591L165.364 141.087ZM179.82 141.167C179.37 141.167 178.901 141.087 178.411 140.928C177.922 140.757 177.525 140.485 177.221 140.115L177.658 139.5C177.922 139.778 178.233 140.003 178.59 140.175C178.96 140.333 179.35 140.413 179.76 140.413C180.064 140.413 180.349 140.373 180.613 140.294C180.891 140.201 181.116 140.049 181.288 139.837C181.46 139.626 181.546 139.342 181.546 138.984C181.546 138.614 181.44 138.33 181.228 138.132C181.03 137.933 180.772 137.774 180.455 137.655C180.15 137.523 179.826 137.404 179.483 137.298C178.914 137.113 178.444 136.862 178.074 136.545C177.717 136.227 177.539 135.778 177.539 135.196C177.539 134.773 177.638 134.402 177.836 134.085C178.048 133.767 178.332 133.523 178.689 133.351C179.046 133.166 179.449 133.073 179.899 133.073C180.309 133.073 180.712 133.139 181.109 133.272C181.519 133.404 181.889 133.629 182.22 133.946L181.803 134.601C181.592 134.31 181.308 134.111 180.95 134.005C180.607 133.9 180.302 133.84 180.038 133.827C179.813 133.827 179.575 133.873 179.324 133.966C179.086 134.058 178.881 134.197 178.709 134.382C178.55 134.554 178.471 134.786 178.471 135.077C178.471 135.381 178.557 135.632 178.729 135.83C178.901 136.016 179.119 136.168 179.383 136.287C179.661 136.406 179.945 136.518 180.236 136.624C180.62 136.743 180.977 136.888 181.308 137.06C181.651 137.219 181.929 137.437 182.141 137.715C182.365 137.979 182.478 138.336 182.478 138.786C182.478 139.236 182.379 139.646 182.18 140.016C181.982 140.373 181.684 140.657 181.288 140.869C180.904 141.067 180.415 141.167 179.82 141.167ZM186.111 133.252L186.21 135.414L186.072 135.216C186.336 134.541 186.772 134.012 187.381 133.629C188.002 133.232 188.677 133.033 189.404 133.033C189.841 133.033 190.231 133.119 190.574 133.291C190.932 133.45 191.216 133.675 191.427 133.966C191.652 134.244 191.784 134.568 191.824 134.938L191.705 135.057C191.983 134.396 192.419 133.893 193.014 133.549C193.609 133.205 194.251 133.033 194.939 133.033C195.679 133.033 196.268 133.252 196.704 133.688C197.14 134.111 197.365 134.667 197.378 135.354V141.008H196.446V135.553C196.433 135.09 196.287 134.7 196.01 134.382C195.732 134.052 195.309 133.873 194.74 133.847C194.224 133.847 193.748 133.979 193.312 134.244C192.876 134.508 192.518 134.858 192.241 135.295C191.976 135.731 191.831 136.221 191.804 136.763V141.008H190.872V135.553C190.859 135.09 190.707 134.7 190.416 134.382C190.138 134.052 189.715 133.873 189.146 133.847C188.617 133.847 188.128 133.979 187.678 134.244C187.242 134.508 186.891 134.872 186.627 135.335C186.362 135.784 186.23 136.287 186.23 136.842V141.008H185.298V133.252H186.111ZM200.911 133.252H201.844V141.008H200.911V133.252ZM200.713 130.395C200.713 130.21 200.786 130.058 200.931 129.939C201.077 129.807 201.235 129.741 201.407 129.741C201.593 129.741 201.751 129.807 201.883 129.939C202.016 130.058 202.082 130.21 202.082 130.395C202.082 130.594 202.016 130.759 201.883 130.891C201.751 131.01 201.593 131.07 201.407 131.07C201.235 131.07 201.077 131.004 200.931 130.871C200.786 130.739 200.713 130.58 200.713 130.395ZM205.367 125.932H206.299V141.008H205.367V125.932ZM213.195 141.167C212.388 141.167 211.674 140.988 211.052 140.631C210.431 140.274 209.941 139.791 209.584 139.183C209.241 138.561 209.069 137.867 209.069 137.1C209.069 136.346 209.254 135.659 209.624 135.037C209.994 134.415 210.49 133.92 211.112 133.549C211.747 133.179 212.448 132.994 213.215 132.994C214.14 132.994 214.914 133.265 215.535 133.807C216.17 134.349 216.626 135.057 216.904 135.93L210.12 138.548L209.842 137.874L216.051 135.454L215.853 135.731C215.628 135.202 215.284 134.746 214.821 134.363C214.372 133.979 213.816 133.787 213.155 133.787C212.56 133.787 212.024 133.933 211.548 134.224C211.072 134.515 210.689 134.905 210.398 135.394C210.12 135.883 209.981 136.439 209.981 137.06C209.981 137.642 210.113 138.184 210.378 138.687C210.656 139.189 211.039 139.593 211.528 139.897C212.018 140.201 212.58 140.353 213.215 140.353C213.638 140.353 214.041 140.274 214.425 140.115C214.821 139.956 215.172 139.751 215.476 139.5L215.952 140.175C215.582 140.466 215.152 140.704 214.663 140.889C214.187 141.074 213.697 141.167 213.195 141.167ZM219.271 126.051H220.124V137.536H219.271V126.051ZM219.727 140.571C219.515 140.571 219.337 140.505 219.191 140.373C219.046 140.241 218.973 140.069 218.973 139.857C218.973 139.672 219.046 139.513 219.191 139.381C219.337 139.236 219.515 139.163 219.727 139.163C219.939 139.163 220.11 139.236 220.243 139.381C220.388 139.513 220.461 139.672 220.461 139.857C220.461 140.069 220.388 140.241 220.243 140.373C220.11 140.505 219.939 140.571 219.727 140.571Z" fill="white"/>
<path fill-rule="evenodd" clip-rule="evenodd" d="M101.032 50.2378C106.108 57.5501 116.503 57.5501 121.579 50.2378C121.845 49.8551 122.131 49.4459 122.434 49.012C129.177 39.3538 144.442 17.4894 136.791 4.21368C136.447 3.74058 135.989 3.22344 135.429 2.71705C131.376 -0.949553 127.468 2.45792 123.116 6.25286C119.578 9.33752 115.747 12.6782 111.305 12.6838C106.864 12.6782 103.033 9.33752 99.495 6.25286C95.1427 2.45792 91.2348 -0.949553 87.1818 2.71705C86.622 3.22344 86.1641 3.74058 85.8198 4.21368C78.1687 17.4894 93.4341 39.3538 100.177 49.012C100.48 49.4459 100.766 49.8551 101.032 50.2378Z" fill="white" fill-opacity="0.5"/>
<g style="mix-blend-mode:screen">
<path fill-rule="evenodd" clip-rule="evenodd" d="M102.913 67.6613C102.115 67.3274 101.257 66.6709 100.613 65.471C100.538 65.3321 100.443 65.1591 100.331 64.9541C98.1085 60.8833 88.9694 44.1473 90.5866 29.6888C92.357 13.8605 103.731 0.348834 111.131 0.00664484V0C111.179 0 111.226 0.000559664 111.274 0.00167603C111.322 0.000559664 111.369 0 111.416 0V0.00664484C118.817 0.348834 130.191 13.8605 131.961 29.6888C133.578 44.1473 124.439 60.8833 122.216 64.9541C122.104 65.1591 122.01 65.3321 121.935 65.471C121.29 66.6709 120.432 67.3274 119.635 67.6613C118.475 68.147 117.049 67.8139 116.304 66.8009C115.296 65.4294 115.326 63.404 115.539 62.3163C120.624 44.5388 114.9 39.3314 111.274 38.9079C107.648 39.3314 101.924 44.5388 107.008 62.3163C107.222 63.404 107.252 65.4294 106.243 66.8009C105.498 67.8139 104.073 68.147 102.913 67.6613Z" fill="white" fill-opacity="0.7"/>
</g>
</svg>
