<svg width="179" height="47" viewBox="0 0 179 47" fill="none" xmlns="http://www.w3.org/2000/svg">
<path d="M51.5944 30.7501C50.0992 30.7501 48.7376 30.4164 47.5094 29.7489C46.3079 29.0547 45.3468 28.0936 44.6259 26.8654C43.9317 25.6372 43.5846 24.2088 43.5846 22.5802C43.5846 20.8447 43.9584 19.3629 44.706 18.1347C45.4536 16.8799 46.4681 15.932 47.7497 15.2913C49.0313 14.6238 50.4864 14.29 52.115 14.29C53.5034 14.29 54.8116 14.7039 56.0398 15.5316C57.2947 16.3592 58.1891 17.4005 58.7231 18.6554L58.4427 19.2161L58.683 14.7706H60.3651V30.4297H58.4828V25.5838L58.8833 26.3047C58.6964 26.8387 58.376 27.3727 57.9221 27.9067C57.4682 28.4139 56.9075 28.8945 56.24 29.3484C55.5993 29.7756 54.8784 30.1227 54.0774 30.3897C53.3031 30.63 52.4755 30.7501 51.5944 30.7501ZM51.9949 29.1482C53.1696 29.1482 54.2243 28.9079 55.1587 28.4273C56.1199 27.92 56.8942 27.2258 57.4816 26.3448C58.0689 25.4637 58.4027 24.4491 58.4828 23.301V21.0583C58.2692 20.0704 57.842 19.1894 57.2012 18.4151C56.5871 17.6408 55.8262 17.0267 54.9184 16.5728C54.0107 16.1189 53.0228 15.892 51.9548 15.892C50.7801 15.892 49.6987 16.1723 48.7109 16.733C47.723 17.267 46.9354 18.0279 46.348 19.0158C45.7606 20.0037 45.4669 21.1651 45.4669 22.5001C45.4669 23.7282 45.7606 24.8496 46.348 25.8642C46.9354 26.852 47.723 27.653 48.7109 28.2671C49.7254 28.8545 50.8201 29.1482 51.9949 29.1482ZM69.1195 14.7706L69.3198 19.5765L69.0795 18.9758C69.4265 18.0146 69.9739 17.1869 70.7215 16.4927C71.469 15.7986 72.2967 15.2646 73.2045 14.8908C74.139 14.517 75.0334 14.3301 75.8878 14.3301L75.8077 16.1723C74.6062 16.1723 73.5115 16.4393 72.5237 16.9733C71.5625 17.5073 70.7882 18.2282 70.2008 19.136C69.6401 20.017 69.3598 21.0183 69.3598 22.1396V30.4297H67.4775V14.7706H69.1195ZM82.728 7.88223H84.6503V14.9709H89.4962V16.4927H84.6503V30.4297H82.728V16.4927H79.4039V14.9709H82.728V7.88223ZM98.7954 30.7902C97.5138 30.7902 96.2857 30.5632 95.1109 30.1093C93.9628 29.6555 92.9883 28.988 92.1873 28.1069L94.1097 25.5838C94.8573 26.3047 95.5915 26.8387 96.3124 27.1858C97.0599 27.5062 97.7675 27.6664 98.435 27.6664C98.9422 27.6664 99.3961 27.613 99.7966 27.5062C100.224 27.3727 100.558 27.1724 100.798 26.9054C101.065 26.6384 101.198 26.278 101.198 25.8241C101.198 25.2901 101.011 24.8763 100.638 24.5826C100.264 24.2622 99.7833 24.0086 99.1959 23.8217C98.6085 23.6081 97.9944 23.4078 97.3536 23.2209C95.8852 22.7671 94.7905 22.0996 94.0696 21.2185C93.3488 20.3374 92.9883 19.3229 92.9883 18.1748C92.9883 17.2937 93.2153 16.4527 93.6691 15.6517C94.123 14.824 94.8172 14.1432 95.7517 13.6092C96.6862 13.0752 97.8609 12.8082 99.276 12.8082C100.558 12.8082 101.666 12.9551 102.6 13.2488C103.561 13.5158 104.456 13.983 105.283 14.6505L103.561 17.3338C103.081 16.8799 102.507 16.5328 101.839 16.2925C101.198 16.0255 100.611 15.8787 100.077 15.852C99.5964 15.8253 99.1692 15.892 98.7954 16.0522C98.4216 16.1857 98.1146 16.3859 97.8743 16.6529C97.6607 16.9199 97.5539 17.227 97.5539 17.5741C97.5272 18.108 97.7007 18.5352 98.0745 18.8556C98.475 19.176 98.9823 19.4297 99.5964 19.6165C100.21 19.8034 100.825 20.0037 101.439 20.2173C102.266 20.4576 103.001 20.7913 103.641 21.2185C104.282 21.6457 104.776 22.1663 105.123 22.7804C105.497 23.3678 105.684 24.102 105.684 24.9831C105.684 25.9977 105.43 26.9588 104.923 27.8666C104.416 28.7477 103.655 29.4552 102.64 29.9892C101.626 30.5232 100.344 30.7902 98.7954 30.7902ZM112.246 6.03998H116.771V13.4891H121.177V17.0134H116.771V30.4297H112.246V17.0134H109.362V13.4891H112.246V6.03998ZM124.182 21.7792C124.182 20.0704 124.583 18.5352 125.384 17.1736C126.185 15.7852 127.306 14.7039 128.748 13.9296C130.216 13.1286 131.872 12.7281 133.714 12.7281C135.61 12.7281 137.252 13.1286 138.64 13.9296C140.055 14.7039 141.15 15.7852 141.924 17.1736C142.698 18.5352 143.085 20.0704 143.085 21.7792C143.085 23.4879 142.698 25.0365 141.924 26.4249C141.15 27.7865 140.055 28.8678 138.64 29.6688C137.252 30.4698 135.596 30.8703 133.674 30.8703C131.858 30.8703 130.23 30.5098 128.788 29.789C127.346 29.0414 126.211 27.9868 125.384 26.6251C124.583 25.2634 124.182 23.6481 124.182 21.7792ZM128.708 21.8192C128.708 22.8071 128.921 23.7149 129.349 24.5426C129.776 25.3435 130.363 25.9843 131.111 26.4649C131.858 26.9455 132.686 27.1858 133.594 27.1858C134.582 27.1858 135.436 26.9455 136.157 26.4649C136.904 25.9843 137.479 25.3435 137.879 24.5426C138.306 23.7149 138.52 22.8071 138.52 21.8192C138.52 20.8047 138.306 19.8969 137.879 19.0959C137.479 18.2682 136.904 17.6141 136.157 17.1335C135.436 16.6529 134.582 16.4126 133.594 16.4126C132.659 16.4126 131.818 16.6663 131.071 17.1736C130.35 17.6542 129.776 18.2949 129.349 19.0959C128.921 19.8969 128.708 20.8047 128.708 21.8192ZM151.844 13.4891L152.244 16.9333L152.084 16.6529C152.725 15.4248 153.592 14.4636 154.687 13.7694C155.808 13.0752 157.103 12.7281 158.572 12.7281C159.506 12.7281 160.334 12.875 161.055 13.1687C161.776 13.4624 162.376 13.8762 162.857 14.4102C163.364 14.9442 163.698 15.6117 163.858 16.4126L163.618 16.4927C164.312 15.3447 165.207 14.4369 166.301 13.7694C167.396 13.0752 168.557 12.7281 169.785 12.7281C171.441 12.7281 172.762 13.2087 173.75 14.1699C174.738 15.1044 175.245 16.3192 175.272 17.8143V30.4297H170.827V19.5765C170.8 18.7488 170.626 18.068 170.306 17.534C169.986 16.9733 169.385 16.6663 168.504 16.6129C167.543 16.6129 166.715 16.9199 166.021 17.534C165.327 18.1214 164.779 18.8957 164.379 19.8568C164.005 20.7913 163.818 21.7925 163.818 22.8605V30.4297H159.293V19.5765C159.266 18.7488 159.079 18.068 158.732 17.534C158.385 16.9733 157.771 16.6663 156.89 16.6129C155.955 16.6129 155.141 16.9199 154.447 17.534C153.753 18.1214 153.219 18.8957 152.845 19.8568C152.471 20.7913 152.284 21.7792 152.284 22.8205V30.4297H147.799V13.4891H151.844Z" fill="#2A2A2A"/>
<path d="M47.0891 36.5215H47.6754V38.6835H49.1534V39.1477H47.6754V43.3984H47.0891V39.1477H46.0753V38.6835H47.0891V36.5215ZM50.5849 43.3984V34.1152H51.1468V39.8928L51.1101 39.6851C51.273 39.3513 51.5336 39.0703 51.8919 38.8423C52.2583 38.6062 52.6777 38.4881 53.15 38.4881C53.5979 38.4881 53.9602 38.6225 54.2371 38.8912C54.514 39.1518 54.6565 39.4938 54.6646 39.9172V43.3984H54.0783V40.076C54.0702 39.7666 53.9725 39.5101 53.7852 39.3065C53.5979 39.1029 53.3251 38.997 52.9668 38.9889C52.6492 38.9889 52.352 39.0703 52.0751 39.2332C51.7982 39.3961 51.5743 39.6159 51.4033 39.8928C51.2404 40.1697 51.159 40.4832 51.159 40.8333V43.3984H50.5849ZM58.9119 43.4961C58.4152 43.4961 57.9755 43.3862 57.5927 43.1663C57.21 42.9465 56.9087 42.6493 56.6888 42.2747C56.4771 41.8919 56.3713 41.4644 56.3713 40.9921C56.3713 40.528 56.4853 40.1045 56.7133 39.7218C56.9413 39.339 57.2467 39.0337 57.6294 38.8057C58.0203 38.5777 58.4518 38.4637 58.9241 38.4637C59.4942 38.4637 59.9705 38.6306 60.3533 38.9645C60.7441 39.2983 61.0251 39.734 61.1961 40.2714L57.0186 41.8838L56.8476 41.4685L60.6709 39.9783L60.5487 40.1493C60.4103 39.8236 60.1986 39.5426 59.9135 39.3065C59.6367 39.0703 59.2947 38.9522 58.8875 38.9522C58.5211 38.9522 58.1913 39.0418 57.8981 39.221C57.6049 39.4001 57.3688 39.6403 57.1896 39.9416C57.0186 40.2429 56.9331 40.585 56.9331 40.9677C56.9331 41.326 57.0146 41.6599 57.1774 41.9693C57.3484 42.2787 57.5846 42.5271 57.8859 42.7144C58.1872 42.9017 58.5333 42.9953 58.9241 42.9953C59.1847 42.9953 59.4331 42.9465 59.6692 42.8488C59.9135 42.751 60.1293 42.6248 60.3166 42.4701L60.6098 42.8854C60.3818 43.0646 60.1171 43.2111 59.8158 43.3251C59.5227 43.4391 59.2214 43.4961 58.9119 43.4961ZM68.5121 43.4961C68.056 43.4961 67.6407 43.3944 67.2662 43.1908C66.8997 42.979 66.6066 42.6859 66.3867 42.3113C66.175 41.9367 66.0691 41.5011 66.0691 41.0043C66.0691 40.475 66.1831 40.0231 66.4111 39.6485C66.6391 39.2658 66.9486 38.9767 67.3394 38.7812C67.7303 38.5777 68.1741 38.4759 68.6709 38.4759C69.0943 38.4759 69.4933 38.6021 69.8679 38.8545C70.2506 39.107 70.5234 39.4246 70.6863 39.8073L70.6008 39.9783L70.6741 38.6225H71.1871V43.3984H70.613V41.9204L70.7352 42.1403C70.6781 42.3032 70.5804 42.466 70.442 42.6289C70.3036 42.7836 70.1326 42.9302 69.929 43.0686C69.7335 43.1989 69.5137 43.3048 69.2694 43.3862C69.0332 43.4595 68.7808 43.4961 68.5121 43.4961ZM68.6342 43.0075C68.9925 43.0075 69.3142 42.9343 69.5992 42.7877C69.8923 42.633 70.1285 42.4212 70.3076 42.1525C70.4868 41.8838 70.5886 41.5744 70.613 41.2242V40.5402C70.5479 40.2389 70.4176 39.9701 70.2221 39.734C70.0348 39.4978 69.8028 39.3105 69.5259 39.1721C69.249 39.0337 68.9477 38.9645 68.622 38.9645C68.2637 38.9645 67.9339 39.05 67.6326 39.221C67.3313 39.3838 67.0911 39.6159 66.9119 39.9172C66.7328 40.2185 66.6432 40.5727 66.6432 40.9799C66.6432 41.3545 66.7328 41.6965 66.9119 42.0059C67.0911 42.3072 67.3313 42.5515 67.6326 42.7388C67.942 42.918 68.2759 43.0075 68.6342 43.0075ZM73.8572 38.6225L73.9182 40.0882L73.845 39.905C73.9508 39.6118 74.1177 39.3594 74.3458 39.1477C74.5738 38.936 74.8262 38.7731 75.1031 38.6591C75.3881 38.5451 75.6609 38.4881 75.9215 38.4881L75.897 39.05C75.5306 39.05 75.1967 39.1314 74.8954 39.2943C74.6023 39.4571 74.3661 39.677 74.187 39.9539C74.016 40.2226 73.9305 40.528 73.9305 40.87V43.3984H73.3564V38.6225H73.8572ZM78.0077 36.5215H78.594V38.6835H80.072V39.1477H78.594V43.3984H78.0077V39.1477H76.9939V38.6835H78.0077V36.5215ZM84.7849 40.9799C84.7849 40.5157 84.8948 40.0923 85.1147 39.7096C85.3427 39.3268 85.6481 39.0255 86.0308 38.8057C86.4217 38.5777 86.8573 38.4637 87.3378 38.4637C87.8264 38.4637 88.262 38.5777 88.6448 38.8057C89.0275 39.0255 89.3288 39.3268 89.5487 39.7096C89.7685 40.0923 89.8784 40.5157 89.8784 40.9799C89.8784 41.4441 89.7685 41.8675 89.5487 42.2502C89.3288 42.633 89.0234 42.9383 88.6325 43.1663C88.2498 43.3862 87.8182 43.4961 87.3378 43.4961C86.8492 43.4961 86.4135 43.3903 86.0308 43.1786C85.6481 42.9587 85.3427 42.6615 85.1147 42.2869C84.8948 41.9041 84.7849 41.4685 84.7849 40.9799ZM85.359 40.9921C85.359 41.3667 85.4445 41.7087 85.6155 42.0182C85.7946 42.3195 86.0308 42.5597 86.324 42.7388C86.6253 42.918 86.9591 43.0075 87.3256 43.0075C87.692 43.0075 88.0218 42.918 88.315 42.7388C88.6163 42.5597 88.8524 42.3195 89.0234 42.0182C89.2026 41.7087 89.2921 41.3667 89.2921 40.9921C89.2921 40.6175 89.2026 40.2796 89.0234 39.9783C88.8524 39.6688 88.6163 39.4246 88.315 39.2454C88.0218 39.0581 87.692 38.9645 87.3256 38.9645C86.951 38.9645 86.613 39.0622 86.3117 39.2576C86.0186 39.4449 85.7865 39.6933 85.6155 40.0027C85.4445 40.3122 85.359 40.642 85.359 40.9921ZM91.9007 43.3984V39.1599H91.0701V38.6347H91.9007V36.2284C91.9007 35.4629 92.0309 34.9132 92.2915 34.5794C92.5603 34.2374 92.9552 34.0663 93.4764 34.0663C93.5904 34.0663 93.7125 34.0826 93.8428 34.1152C93.9731 34.1396 94.0912 34.1844 94.197 34.2496L93.9527 34.6649C93.8957 34.6242 93.8306 34.5957 93.7573 34.5794C93.6922 34.5549 93.6148 34.5427 93.5252 34.5427C93.1751 34.5427 92.9104 34.6649 92.7313 34.9092C92.5603 35.1535 92.4748 35.5891 92.4748 36.2161V38.6347H94.0749V39.1599H92.4748V43.3984H91.9007ZM101.268 43.4961C100.812 43.4961 100.396 43.3944 100.022 43.1908C99.6553 42.979 99.3622 42.6859 99.1423 42.3113C98.9306 41.9367 98.8247 41.5011 98.8247 41.0043C98.8247 40.475 98.9387 40.0231 99.1667 39.6485C99.3947 39.2658 99.7042 38.9767 100.095 38.7812C100.486 38.5777 100.93 38.4759 101.426 38.4759C101.85 38.4759 102.249 38.6021 102.624 38.8545C103.006 39.107 103.279 39.4246 103.442 39.8073L103.356 39.9783L103.43 38.6225H103.943V43.3984H103.369V41.9204L103.491 42.1403C103.434 42.3032 103.336 42.466 103.198 42.6289C103.059 42.7836 102.888 42.9302 102.685 43.0686C102.489 43.1989 102.269 43.3048 102.025 43.3862C101.789 43.4595 101.536 43.4961 101.268 43.4961ZM101.39 43.0075C101.748 43.0075 102.07 42.9343 102.355 42.7877C102.648 42.633 102.884 42.4212 103.063 42.1525C103.242 41.8838 103.344 41.5744 103.369 41.2242V40.5402C103.303 40.2389 103.173 39.9701 102.978 39.734C102.79 39.4978 102.558 39.3105 102.281 39.1721C102.005 39.0337 101.703 38.9645 101.378 38.9645C101.019 38.9645 100.689 39.05 100.388 39.221C100.087 39.3838 99.8467 39.6159 99.6675 39.9172C99.4884 40.2185 99.3988 40.5727 99.3988 40.9799C99.3988 41.3545 99.4884 41.6965 99.6675 42.0059C99.8467 42.3072 100.087 42.5515 100.388 42.7388C100.698 42.918 101.032 43.0075 101.39 43.0075ZM109.857 43.3984V34.1152H110.419V39.8928L110.383 39.6851C110.546 39.3513 110.806 39.0703 111.164 38.8423C111.531 38.6062 111.95 38.4881 112.423 38.4881C112.87 38.4881 113.233 38.6225 113.51 38.8912C113.787 39.1518 113.929 39.4938 113.937 39.9172V43.3984H113.351V40.076C113.343 39.7666 113.245 39.5101 113.058 39.3065C112.87 39.1029 112.598 38.997 112.239 38.9889C111.922 38.9889 111.625 39.0703 111.348 39.2332C111.071 39.3961 110.847 39.6159 110.676 39.8928C110.513 40.1697 110.432 40.4832 110.432 40.8333V43.3984H109.857ZM118.185 43.4961C117.688 43.4961 117.248 43.3862 116.865 43.1663C116.483 42.9465 116.181 42.6493 115.961 42.2747C115.75 41.8919 115.644 41.4644 115.644 40.9921C115.644 40.528 115.758 40.1045 115.986 39.7218C116.214 39.339 116.519 39.0337 116.902 38.8057C117.293 38.5777 117.724 38.4637 118.197 38.4637C118.767 38.4637 119.243 38.6306 119.626 38.9645C120.017 39.2983 120.298 39.734 120.469 40.2714L116.291 41.8838L116.12 41.4685L119.943 39.9783L119.821 40.1493C119.683 39.8236 119.471 39.5426 119.186 39.3065C118.909 39.0703 118.567 38.9522 118.16 38.9522C117.794 38.9522 117.464 39.0418 117.171 39.221C116.878 39.4001 116.641 39.6403 116.462 39.9416C116.291 40.2429 116.206 40.585 116.206 40.9677C116.206 41.326 116.287 41.6599 116.45 41.9693C116.621 42.2787 116.857 42.5271 117.158 42.7144C117.46 42.9017 117.806 42.9953 118.197 42.9953C118.457 42.9953 118.706 42.9465 118.942 42.8488C119.186 42.751 119.402 42.6248 119.589 42.4701L119.882 42.8854C119.654 43.0646 119.39 43.2111 119.088 43.3251C118.795 43.4391 118.494 43.4961 118.185 43.4961ZM124.039 43.4961C123.583 43.4961 123.168 43.3944 122.793 43.1908C122.427 42.979 122.134 42.6859 121.914 42.3113C121.702 41.9367 121.596 41.5011 121.596 41.0043C121.596 40.475 121.71 40.0231 121.938 39.6485C122.166 39.2658 122.476 38.9767 122.867 38.7812C123.257 38.5777 123.701 38.4759 124.198 38.4759C124.621 38.4759 125.02 38.6021 125.395 38.8545C125.778 39.107 126.05 39.4246 126.213 39.8073L126.128 39.9783L126.201 38.6225H126.714V43.3984H126.14V41.9204L126.262 42.1403C126.205 42.3032 126.107 42.466 125.969 42.6289C125.831 42.7836 125.66 42.9302 125.456 43.0686C125.261 43.1989 125.041 43.3048 124.796 43.3862C124.56 43.4595 124.308 43.4961 124.039 43.4961ZM124.161 43.0075C124.52 43.0075 124.841 42.9343 125.126 42.7877C125.419 42.633 125.656 42.4212 125.835 42.1525C126.014 41.8838 126.116 41.5744 126.14 41.2242V40.5402C126.075 40.2389 125.945 39.9701 125.749 39.734C125.562 39.4978 125.33 39.3105 125.053 39.1721C124.776 39.0337 124.475 38.9645 124.149 38.9645C123.791 38.9645 123.461 39.05 123.16 39.221C122.858 39.3838 122.618 39.6159 122.439 39.9172C122.26 40.2185 122.17 40.5727 122.17 40.9799C122.17 41.3545 122.26 41.6965 122.439 42.0059C122.618 42.3072 122.858 42.5515 123.16 42.7388C123.469 42.918 123.803 43.0075 124.161 43.0075ZM128.883 34.1152H129.458V43.3984H128.883V34.1152ZM132.103 36.5215H132.69V38.6835H134.168V39.1477H132.69V43.3984H132.103V39.1477H131.09V38.6835H132.103V36.5215ZM135.599 43.3984V34.1152H136.161V39.8928L136.124 39.6851C136.287 39.3513 136.548 39.0703 136.906 38.8423C137.273 38.6062 137.692 38.4881 138.164 38.4881C138.612 38.4881 138.974 38.6225 139.251 38.8912C139.528 39.1518 139.671 39.4938 139.679 39.9172V43.3984H139.093V40.076C139.084 39.7666 138.987 39.5101 138.799 39.3065C138.612 39.1029 138.339 38.997 137.981 38.9889C137.663 38.9889 137.366 39.0703 137.089 39.2332C136.812 39.3961 136.589 39.6159 136.418 39.8928C136.255 40.1697 136.173 40.4832 136.173 40.8333V43.3984H135.599ZM142.289 45.6948L145.404 38.6225H145.966L142.888 45.6948H142.289ZM143.364 43.4473L141.105 38.6225H141.752L143.816 43.1419L143.364 43.4473ZM152.266 43.4961C151.989 43.4961 151.7 43.4473 151.398 43.3496C151.097 43.2437 150.853 43.0768 150.666 42.8488L150.934 42.4701C151.097 42.6411 151.289 42.7795 151.508 42.8854C151.736 42.9831 151.977 43.032 152.229 43.032C152.416 43.032 152.591 43.0075 152.754 42.9587C152.925 42.9017 153.064 42.808 153.17 42.6778C153.275 42.5475 153.328 42.3724 153.328 42.1525C153.328 41.9245 153.263 41.7494 153.133 41.6273C153.011 41.5051 152.852 41.4074 152.657 41.3341C152.469 41.2527 152.27 41.1794 152.058 41.1143C151.708 41.0003 151.419 40.8455 151.191 40.6501C150.971 40.4547 150.861 40.1778 150.861 39.8195C150.861 39.5589 150.922 39.3309 151.044 39.1355C151.175 38.94 151.35 38.7894 151.569 38.6835C151.789 38.5695 152.038 38.5125 152.315 38.5125C152.567 38.5125 152.815 38.5532 153.06 38.6347C153.312 38.7161 153.54 38.8545 153.744 39.05L153.487 39.4531C153.357 39.2739 153.182 39.1518 152.962 39.0866C152.75 39.0215 152.563 38.9848 152.4 38.9767C152.262 38.9767 152.115 39.0052 151.96 39.0622C151.814 39.1192 151.688 39.2047 151.582 39.3187C151.484 39.4246 151.435 39.5671 151.435 39.7462C151.435 39.9335 151.488 40.0882 151.594 40.2104C151.7 40.3244 151.834 40.418 151.997 40.4913C152.168 40.5646 152.343 40.6338 152.522 40.699C152.758 40.7722 152.978 40.8618 153.182 40.9677C153.394 41.0654 153.565 41.1998 153.695 41.3708C153.833 41.5336 153.902 41.7535 153.902 42.0304C153.902 42.3072 153.841 42.5597 153.719 42.7877C153.597 43.0075 153.414 43.1826 153.17 43.3129C152.933 43.4351 152.632 43.4961 152.266 43.4961ZM156.14 38.6225L156.201 39.9539L156.115 39.8317C156.278 39.4164 156.547 39.0907 156.922 38.8545C157.304 38.6102 157.72 38.4881 158.167 38.4881C158.436 38.4881 158.676 38.541 158.888 38.6469C159.108 38.7446 159.283 38.883 159.413 39.0622C159.552 39.2332 159.633 39.4327 159.658 39.6607L159.584 39.734C159.755 39.3268 160.024 39.0174 160.391 38.8057C160.757 38.5939 161.152 38.4881 161.575 38.4881C162.031 38.4881 162.394 38.6225 162.662 38.8912C162.931 39.1518 163.07 39.4938 163.078 39.9172V43.3984H162.504V40.0394C162.496 39.7544 162.406 39.5141 162.235 39.3187C162.064 39.1151 161.803 39.0052 161.453 38.9889C161.136 38.9889 160.842 39.0703 160.574 39.2332C160.305 39.3961 160.085 39.6118 159.914 39.8806C159.751 40.1493 159.662 40.4506 159.645 40.7845V43.3984H159.071V40.0394C159.063 39.7544 158.97 39.5141 158.79 39.3187C158.619 39.1151 158.359 39.0052 158.009 38.9889C157.683 38.9889 157.382 39.0703 157.105 39.2332C156.836 39.3961 156.62 39.62 156.457 39.905C156.295 40.1819 156.213 40.4913 156.213 40.8333V43.3984H155.639V38.6225H156.14ZM165.253 38.6225H165.827V43.3984H165.253V38.6225ZM165.131 36.8635C165.131 36.7495 165.176 36.6559 165.266 36.5826C165.355 36.5012 165.453 36.4604 165.559 36.4604C165.673 36.4604 165.77 36.5012 165.852 36.5826C165.933 36.6559 165.974 36.7495 165.974 36.8635C165.974 36.9857 165.933 37.0875 165.852 37.1689C165.77 37.2422 165.673 37.2788 165.559 37.2788C165.453 37.2788 165.355 37.2381 165.266 37.1567C165.176 37.0752 165.131 36.9775 165.131 36.8635ZM167.997 34.1152H168.571V43.3984H167.997V34.1152ZM172.817 43.4961C172.32 43.4961 171.88 43.3862 171.498 43.1663C171.115 42.9465 170.814 42.6493 170.594 42.2747C170.382 41.8919 170.276 41.4644 170.276 40.9921C170.276 40.528 170.39 40.1045 170.618 39.7218C170.846 39.339 171.152 39.0337 171.534 38.8057C171.925 38.5777 172.357 38.4637 172.829 38.4637C173.399 38.4637 173.876 38.6306 174.258 38.9645C174.649 39.2983 174.93 39.734 175.101 40.2714L170.924 41.8838L170.753 41.4685L174.576 39.9783L174.454 40.1493C174.315 39.8236 174.104 39.5426 173.819 39.3065C173.542 39.0703 173.2 38.9522 172.793 38.9522C172.426 38.9522 172.096 39.0418 171.803 39.221C171.51 39.4001 171.274 39.6403 171.095 39.9416C170.924 40.2429 170.838 40.585 170.838 40.9677C170.838 41.326 170.92 41.6599 171.082 41.9693C171.253 42.2787 171.49 42.5271 171.791 42.7144C172.092 42.9017 172.438 42.9953 172.829 42.9953C173.09 42.9953 173.338 42.9465 173.574 42.8488C173.819 42.751 174.034 42.6248 174.222 42.4701L174.515 42.8854C174.287 43.0646 174.022 43.2111 173.721 43.3251C173.428 43.4391 173.126 43.4961 172.817 43.4961ZM176.558 34.1885H177.084V41.2608H176.558V34.1885ZM176.839 43.1297C176.709 43.1297 176.599 43.089 176.51 43.0075C176.42 42.9261 176.375 42.8203 176.375 42.69C176.375 42.576 176.42 42.4782 176.51 42.3968C176.599 42.3072 176.709 42.2624 176.839 42.2624C176.97 42.2624 177.075 42.3072 177.157 42.3968C177.247 42.4782 177.291 42.576 177.291 42.69C177.291 42.8203 177.247 42.9261 177.157 43.0075C177.075 43.089 176.97 43.1297 176.839 43.1297Z" fill="#2A2A2A"/>
<g clip-path="url(#clip0_1_166)">
<path d="M11.3589 6.90744C8.917 4.57268 6.49804 2.6666 3.65806 4.144C2.59402 4.70281 1.7826 5.47596 1.31565 6.11898C-1.64682 11.2631 0.848694 18.4511 4.1939 24.6439C4.18625 23.8172 4.21687 22.9905 4.30873 22.179C5.00533 15.9785 8.03668 10.3368 11.3513 6.90744H11.3589Z" fill="#586270"/>
<path d="M30.5197 24.7435C33.8955 18.5277 36.437 11.2861 33.4516 6.11905C32.9846 5.47603 32.1732 4.69523 31.1091 4.14407C28.2615 2.65902 25.8349 4.59572 23.3853 6.93813C26.6922 10.3675 29.7083 15.9939 30.4049 22.1791C30.4968 23.0288 30.535 23.8862 30.5197 24.7435Z" fill="#586270"/>
<path d="M17.3617 27.9892C15.4403 28.2112 12.5926 30.5689 13.6261 37.9483C15.9072 39.3644 18.8085 39.3721 21.0973 37.9789C22.146 30.5689 19.2831 28.2112 17.3617 27.9815V27.9892Z" fill="#586270"/>
<path d="M24.4041 34.3582C24.2127 34.6338 24.0366 34.8864 23.8682 35.1314C23.5926 35.5294 23.3171 35.8969 23.0491 36.2413C22.4827 36.9609 21.8167 37.5427 21.0971 37.979C20.8981 39.3799 20.5613 40.9568 20.056 42.7404C19.9029 43.5212 19.9029 45.0522 20.8292 45.8866C21.2043 46.2234 21.7325 46.3535 22.2224 46.2387C22.8195 46.1009 23.562 45.6952 24.0825 44.723C24.1285 44.6388 24.1897 44.524 24.2586 44.3939C25.5293 42.0668 30.3902 33.1641 30.5203 24.7283C28.4305 28.5711 26.0269 32.0158 24.4041 34.3429V34.3582Z" fill="#586270"/>
<path d="M11.7273 36.2412C11.4594 35.8968 11.1915 35.5293 10.9082 35.1313C10.7398 34.8863 10.5638 34.6337 10.3724 34.3581C8.73422 32.0157 6.29995 28.5251 4.2025 24.644C4.29436 33.1104 9.18587 42.0667 10.4642 44.4091C10.5331 44.5392 10.5944 44.6464 10.6403 44.7382C11.1608 45.7104 11.9034 46.1161 12.5005 46.2539C12.9904 46.3687 13.5186 46.2386 13.8937 45.9018C14.8199 45.0674 14.8199 43.5288 14.6668 42.7556C14.1539 40.9567 13.8171 39.3721 13.6181 37.9636C12.9138 37.5273 12.2708 36.9608 11.7197 36.2566L11.7273 36.2412Z" fill="#586270"/>
<path d="M15.7308 10.8117C16.3049 11.2097 16.8714 11.4547 17.3919 11.4547C17.9124 11.4547 18.4713 11.2097 19.053 10.8117C20.2702 9.96196 21.4337 8.83668 22.5743 7.72672C22.8499 7.45879 23.1255 7.19087 23.3934 6.9306C21.3572 4.83315 19.2214 3.54712 17.4455 3.46291C17.4455 3.46291 17.3843 3.46291 17.3536 3.46291C17.323 3.46291 17.2924 3.46291 17.2618 3.46291C15.4935 3.54712 13.3731 4.81784 11.3522 6.90764C11.6354 7.17556 11.9186 7.45114 12.2019 7.72672C13.3424 8.83668 14.4983 9.96196 15.7231 10.8117H15.7308Z" fill="#586270"/>
<path d="M23.0479 36.2412C23.3158 35.8967 23.5837 35.5293 23.867 35.1312C24.0354 34.8862 24.2115 34.6336 24.4028 34.358C26.0257 32.0309 28.4293 28.5862 30.5191 24.7434C30.5344 23.8784 30.4962 23.0211 30.4043 22.179C29.7154 15.9938 26.6917 10.3675 23.3847 6.93805C23.1091 7.19832 22.8412 7.46624 22.5656 7.73416C21.4251 8.84413 20.2692 9.96941 19.0444 10.8191C18.4702 11.2172 17.9038 11.4621 17.3832 11.4621C16.8627 11.4621 16.3039 11.2172 15.7221 10.8191C14.505 9.96941 13.3414 8.84413 12.2009 7.73416C11.9176 7.45859 11.6344 7.18301 11.3512 6.91508C8.03656 10.3445 5.00521 15.9785 4.30861 22.1867C4.21675 22.9981 4.18613 23.8248 4.19378 24.6516C6.29124 28.5326 8.72551 32.0233 10.3637 34.3657C10.555 34.6413 10.7311 34.8939 10.8995 35.1389C11.1751 35.5369 11.4507 35.9043 11.7186 36.2488C12.2697 36.9531 12.9128 37.5195 13.617 37.9559C12.5836 30.5689 15.4312 28.2188 17.3526 27.9968C19.274 28.2188 22.1293 30.5765 21.0882 37.9941C21.8155 37.5502 22.4814 36.976 23.0402 36.2565L23.0479 36.2412Z" fill="#272B31"/>
</g>
<defs>
<clipPath id="clip0_1_166">
<rect width="34.7764" height="42.8217" fill="white" transform="translate(0 3.46302)"/>
</clipPath>
</defs>
</svg>
