<svg width="1097" height="90" viewBox="0 0 1097 90" fill="none" xmlns="http://www.w3.org/2000/svg">
<rect width="1097" height="90" rx="10" fill="url(#paint0_linear_1_282)"/>
<path d="M1032.72 52.415V37.085H1035.66V52.415H1032.72ZM1026.35 46.15V43.385H1042.03V46.15H1026.35Z" fill="#2A2A2A"/>
<path d="M54.8 43.448H63.44V45.488H54.8V43.448ZM55.016 50.912H64.808V53H52.616V36.2H64.472V38.288H55.016V50.912ZM73.5729 53.144C72.2769 53.144 71.1169 52.864 70.0929 52.304C69.0849 51.744 68.2929 50.976 67.7169 50C67.1409 49.024 66.8529 47.904 66.8529 46.64C66.8529 45.376 67.1409 44.256 67.7169 43.28C68.2929 42.304 69.0849 41.544 70.0929 41C71.1169 40.44 72.2769 40.16 73.5729 40.16C74.7249 40.16 75.7489 40.392 76.6449 40.856C77.5569 41.304 78.2609 41.976 78.7569 42.872L77.0049 44C76.5889 43.376 76.0769 42.92 75.4689 42.632C74.8769 42.328 74.2369 42.176 73.5489 42.176C72.7169 42.176 71.9729 42.36 71.3169 42.728C70.6609 43.096 70.1409 43.616 69.7569 44.288C69.3729 44.944 69.1809 45.728 69.1809 46.64C69.1809 47.552 69.3729 48.344 69.7569 49.016C70.1409 49.688 70.6609 50.208 71.3169 50.576C71.9729 50.944 72.7169 51.128 73.5489 51.128C74.2369 51.128 74.8769 50.984 75.4689 50.696C76.0769 50.392 76.5889 49.928 77.0049 49.304L78.7569 50.408C78.2609 51.288 77.5569 51.968 76.6449 52.448C75.7489 52.912 74.7249 53.144 73.5729 53.144ZM84.0958 53V41.696L84.6718 42.296H79.4398V40.28H91.0558V42.296H85.8478L86.3997 41.696V53H84.0958ZM98.5132 53.144C97.1532 53.144 95.9532 52.864 94.9132 52.304C93.8892 51.744 93.0892 50.976 92.5132 50C91.9532 49.024 91.6732 47.904 91.6732 46.64C91.6732 45.376 91.9452 44.256 92.4892 43.28C93.0492 42.304 93.8092 41.544 94.7692 41C95.7452 40.44 96.8412 40.16 98.0572 40.16C99.2892 40.16 100.377 40.432 101.321 40.976C102.265 41.52 103.001 42.288 103.529 43.28C104.073 44.256 104.345 45.4 104.345 46.712C104.345 46.808 104.337 46.92 104.321 47.048C104.321 47.176 104.313 47.296 104.297 47.408H93.4732V45.752H103.097L102.161 46.328C102.177 45.512 102.009 44.784 101.657 44.144C101.305 43.504 100.817 43.008 100.193 42.656C99.5852 42.288 98.8732 42.104 98.0572 42.104C97.2572 42.104 96.5452 42.288 95.9212 42.656C95.2972 43.008 94.8092 43.512 94.4572 44.168C94.1052 44.808 93.9292 45.544 93.9292 46.376V46.76C93.9292 47.608 94.1212 48.368 94.5052 49.04C94.9052 49.696 95.4572 50.208 96.1612 50.576C96.8652 50.944 97.6732 51.128 98.5852 51.128C99.3372 51.128 100.017 51 100.625 50.744C101.249 50.488 101.793 50.104 102.257 49.592L103.529 51.08C102.953 51.752 102.233 52.264 101.369 52.616C100.521 52.968 99.5692 53.144 98.5132 53.144ZM109.9 53V41.696L110.476 42.296H105.244V40.28H116.86V42.296H111.652L112.204 41.696V53H109.9ZM119.216 53V40.28H121.52V49.544L129.32 40.28H131.408V53H129.104V43.736L121.328 53H119.216ZM143.896 47.792C143.224 48.112 142.528 48.368 141.808 48.56C141.104 48.736 140.376 48.824 139.624 48.824C138.088 48.824 136.872 48.464 135.976 47.744C135.096 47.024 134.656 45.912 134.656 44.408V40.28H136.96V44.264C136.96 45.176 137.24 45.848 137.8 46.28C138.376 46.712 139.144 46.928 140.104 46.928C140.712 46.928 141.336 46.848 141.976 46.688C142.632 46.528 143.272 46.304 143.896 46.016V47.792ZM143.728 53V40.28H146.032V53H143.728ZM150.505 53V40.28H152.809V45.68H160.057V40.28H162.361V53H160.057V47.672H152.809V53H150.505ZM174.641 53V50.312L174.521 49.808V45.224C174.521 44.248 174.233 43.496 173.657 42.968C173.097 42.424 172.249 42.152 171.113 42.152C170.361 42.152 169.625 42.28 168.905 42.536C168.185 42.776 167.577 43.104 167.081 43.52L166.121 41.792C166.777 41.264 167.561 40.864 168.473 40.592C169.401 40.304 170.369 40.16 171.377 40.16C173.121 40.16 174.465 40.584 175.409 41.432C176.353 42.28 176.825 43.576 176.825 45.32V53H174.641ZM170.465 53.144C169.521 53.144 168.689 52.984 167.969 52.664C167.265 52.344 166.721 51.904 166.337 51.344C165.953 50.768 165.761 50.12 165.761 49.4C165.761 48.712 165.921 48.088 166.241 47.528C166.577 46.968 167.113 46.52 167.849 46.184C168.601 45.848 169.609 45.68 170.873 45.68H174.905V47.336H170.969C169.817 47.336 169.041 47.528 168.641 47.912C168.241 48.296 168.041 48.76 168.041 49.304C168.041 49.928 168.289 50.432 168.785 50.816C169.281 51.184 169.969 51.368 170.849 51.368C171.713 51.368 172.465 51.176 173.105 50.792C173.761 50.408 174.233 49.848 174.521 49.112L174.977 50.696C174.673 51.448 174.137 52.048 173.369 52.496C172.601 52.928 171.633 53.144 170.465 53.144ZM192.964 53.144C191.668 53.144 190.508 52.864 189.484 52.304C188.476 51.744 187.684 50.976 187.108 50C186.532 49.024 186.244 47.904 186.244 46.64C186.244 45.376 186.532 44.256 187.108 43.28C187.684 42.304 188.476 41.544 189.484 41C190.508 40.44 191.668 40.16 192.964 40.16C194.116 40.16 195.14 40.392 196.036 40.856C196.948 41.304 197.652 41.976 198.148 42.872L196.396 44C195.98 43.376 195.468 42.92 194.86 42.632C194.268 42.328 193.628 42.176 192.94 42.176C192.108 42.176 191.364 42.36 190.708 42.728C190.052 43.096 189.532 43.616 189.148 44.288C188.764 44.944 188.572 45.728 188.572 46.64C188.572 47.552 188.764 48.344 189.148 49.016C189.532 49.688 190.052 50.208 190.708 50.576C191.364 50.944 192.108 51.128 192.94 51.128C193.628 51.128 194.268 50.984 194.86 50.696C195.468 50.392 195.98 49.928 196.396 49.304L198.148 50.408C197.652 51.288 196.948 51.968 196.036 52.448C195.14 52.912 194.116 53.144 192.964 53.144ZM203.486 53V41.696L204.062 42.296H198.83V40.28H210.446V42.296H205.238L205.79 41.696V53H203.486ZM217.688 53.144C216.408 53.144 215.272 52.864 214.28 52.304C213.288 51.744 212.504 50.976 211.928 50C211.352 49.008 211.064 47.888 211.064 46.64C211.064 45.376 211.352 44.256 211.928 43.28C212.504 42.304 213.288 41.544 214.28 41C215.272 40.44 216.408 40.16 217.688 40.16C218.952 40.16 220.08 40.44 221.072 41C222.08 41.544 222.864 42.304 223.424 43.28C224 44.24 224.288 45.36 224.288 46.64C224.288 47.904 224 49.024 223.424 50C222.864 50.976 222.08 51.744 221.072 52.304C220.08 52.864 218.952 53.144 217.688 53.144ZM217.688 51.128C218.504 51.128 219.232 50.944 219.872 50.576C220.528 50.208 221.04 49.688 221.408 49.016C221.776 48.328 221.96 47.536 221.96 46.64C221.96 45.728 221.776 44.944 221.408 44.288C221.04 43.616 220.528 43.096 219.872 42.728C219.232 42.36 218.504 42.176 217.688 42.176C216.872 42.176 216.144 42.36 215.504 42.728C214.864 43.096 214.352 43.616 213.968 44.288C213.584 44.944 213.392 45.728 213.392 46.64C213.392 47.536 213.584 48.328 213.968 49.016C214.352 49.688 214.864 50.208 215.504 50.576C216.144 50.944 216.872 51.128 217.688 51.128ZM227.615 53V40.28H229.991L235.463 49.688H234.503L240.119 40.28H242.279V53H240.191V42.872L240.575 43.088L235.439 51.56H234.431L229.271 42.92L229.727 42.824V53H227.615ZM254.563 53V50.312L254.443 49.808V45.224C254.443 44.248 254.155 43.496 253.579 42.968C253.019 42.424 252.171 42.152 251.035 42.152C250.283 42.152 249.547 42.28 248.827 42.536C248.107 42.776 247.499 43.104 247.003 43.52L246.043 41.792C246.699 41.264 247.483 40.864 248.395 40.592C249.323 40.304 250.291 40.16 251.299 40.16C253.043 40.16 254.387 40.584 255.331 41.432C256.275 42.28 256.747 43.576 256.747 45.32V53H254.563ZM250.387 53.144C249.443 53.144 248.611 52.984 247.891 52.664C247.187 52.344 246.643 51.904 246.259 51.344C245.875 50.768 245.683 50.12 245.683 49.4C245.683 48.712 245.843 48.088 246.163 47.528C246.499 46.968 247.035 46.52 247.771 46.184C248.523 45.848 249.531 45.68 250.795 45.68H254.827V47.336H250.891C249.739 47.336 248.963 47.528 248.563 47.912C248.163 48.296 247.963 48.76 247.963 49.304C247.963 49.928 248.211 50.432 248.707 50.816C249.203 51.184 249.891 51.368 250.771 51.368C251.635 51.368 252.387 51.176 253.027 50.792C253.683 50.408 254.155 49.848 254.443 49.112L254.899 50.696C254.595 51.448 254.059 52.048 253.291 52.496C252.523 52.928 251.555 53.144 250.387 53.144ZM263.416 53V41.696L263.992 42.296H258.76V40.28H270.376V42.296H265.168L265.72 41.696V53H263.416ZM277.618 53.144C276.338 53.144 275.202 52.864 274.21 52.304C273.218 51.744 272.434 50.976 271.858 50C271.282 49.008 270.994 47.888 270.994 46.64C270.994 45.376 271.282 44.256 271.858 43.28C272.434 42.304 273.218 41.544 274.21 41C275.202 40.44 276.338 40.16 277.618 40.16C278.882 40.16 280.01 40.44 281.002 41C282.01 41.544 282.794 42.304 283.354 43.28C283.93 44.24 284.218 45.36 284.218 46.64C284.218 47.904 283.93 49.024 283.354 50C282.794 50.976 282.01 51.744 281.002 52.304C280.01 52.864 278.882 53.144 277.618 53.144ZM277.618 51.128C278.434 51.128 279.162 50.944 279.802 50.576C280.458 50.208 280.97 49.688 281.338 49.016C281.706 48.328 281.89 47.536 281.89 46.64C281.89 45.728 281.706 44.944 281.338 44.288C280.97 43.616 280.458 43.096 279.802 42.728C279.162 42.36 278.434 42.176 277.618 42.176C276.802 42.176 276.074 42.36 275.434 42.728C274.794 43.096 274.282 43.616 273.898 44.288C273.514 44.944 273.322 45.728 273.322 46.64C273.322 47.536 273.514 48.328 273.898 49.016C274.282 49.688 274.794 50.208 275.434 50.576C276.074 50.944 276.802 51.128 277.618 51.128ZM285.339 52.976L285.483 51.032C285.595 51.048 285.699 51.064 285.795 51.08C285.891 51.096 285.979 51.104 286.059 51.104C286.571 51.104 286.971 50.928 287.259 50.576C287.563 50.224 287.787 49.76 287.931 49.184C288.075 48.592 288.179 47.928 288.243 47.192C288.307 46.456 288.355 45.72 288.387 44.984L288.603 40.28H298.371V53H296.067V41.624L296.619 42.296H290.091L290.619 41.6L290.451 45.128C290.403 46.248 290.315 47.296 290.187 48.272C290.059 49.248 289.859 50.104 289.587 50.84C289.331 51.576 288.971 52.152 288.507 52.568C288.059 52.984 287.475 53.192 286.755 53.192C286.547 53.192 286.323 53.168 286.083 53.12C285.859 53.088 285.611 53.04 285.339 52.976ZM308.274 53.144C306.994 53.144 305.858 52.864 304.866 52.304C303.874 51.744 303.09 50.976 302.514 50C301.938 49.008 301.65 47.888 301.65 46.64C301.65 45.376 301.938 44.256 302.514 43.28C303.09 42.304 303.874 41.544 304.866 41C305.858 40.44 306.994 40.16 308.274 40.16C309.538 40.16 310.666 40.44 311.658 41C312.666 41.544 313.45 42.304 314.01 43.28C314.586 44.24 314.874 45.36 314.874 46.64C314.874 47.904 314.586 49.024 314.01 50C313.45 50.976 312.666 51.744 311.658 52.304C310.666 52.864 309.538 53.144 308.274 53.144ZM308.274 51.128C309.09 51.128 309.818 50.944 310.458 50.576C311.114 50.208 311.626 49.688 311.994 49.016C312.362 48.328 312.546 47.536 312.546 46.64C312.546 45.728 312.362 44.944 311.994 44.288C311.626 43.616 311.114 43.096 310.458 42.728C309.818 42.36 309.09 42.176 308.274 42.176C307.458 42.176 306.73 42.36 306.09 42.728C305.45 43.096 304.938 43.616 304.554 44.288C304.17 44.944 303.978 45.728 303.978 46.64C303.978 47.536 304.17 48.328 304.554 49.016C304.938 49.688 305.45 50.208 306.09 50.576C306.73 50.944 307.458 51.128 308.274 51.128ZM318.201 53V40.28H327.561V42.296H319.953L320.505 41.768V53H318.201ZM329.92 53V40.28H332.224V53H329.92ZM331.072 37.832C330.624 37.832 330.248 37.688 329.944 37.4C329.656 37.112 329.512 36.76 329.512 36.344C329.512 35.912 329.656 35.552 329.944 35.264C330.248 34.976 330.624 34.832 331.072 34.832C331.52 34.832 331.888 34.976 332.176 35.264C332.48 35.536 332.632 35.88 332.632 36.296C332.632 36.728 332.488 37.096 332.2 37.4C331.912 37.688 331.536 37.832 331.072 37.832ZM344.852 53V48.536L345.212 48.968H341.156C339.46 48.968 338.132 48.608 337.172 47.888C336.228 47.168 335.756 46.12 335.756 44.744C335.756 43.272 336.26 42.16 337.268 41.408C338.292 40.656 339.652 40.28 341.348 40.28H346.916V53H344.852ZM335.636 53L339.092 48.128H341.468L338.108 53H335.636ZM344.852 47.816V41.648L345.212 42.296H341.42C340.364 42.296 339.548 42.496 338.972 42.896C338.396 43.28 338.108 43.92 338.108 44.816C338.108 46.48 339.18 47.312 341.324 47.312H345.212L344.852 47.816Z" fill="#2A2A2A"/>
<defs>
<linearGradient id="paint0_linear_1_282" x1="508" y1="-3.55764e-06" x2="508" y2="90" gradientUnits="userSpaceOnUse">
<stop stop-color="#B4D3FF"/>
<stop offset="1" stop-color="#B4D3FF" stop-opacity="0"/>
</linearGradient>
</defs>
</svg>
